<?xml version="1.0" standalone="no"?>
<!DOCTYPE svg PUBLIC "-//W3C//DTD SVG 20010904//EN"
 "http://www.w3.org/TR/2001/REC-SVG-20010904/DTD/svg10.dtd">
<svg version="1.0" xmlns="http://www.w3.org/2000/svg"
 width="583.000000pt" height="605.000000pt" viewBox="0 0 583.000000 605.000000"
 preserveAspectRatio="xMidYMid meet">

<g transform="translate(0.000000,605.000000) scale(0.100000,-0.100000)"
fill="#000000" stroke="none">
<path d="M3468 5844 c-3 -3 -59 -5 -124 -5 -66 1 -144 -4 -174 -9 -66 -12
-263 -28 -450 -37 -109 -5 -140 -9 -159 -24 -13 -11 -33 -19 -43 -19 -34 0
-132 -32 -169 -55 -19 -13 -52 -39 -73 -58 -23 -22 -66 -46 -109 -62 -113 -41
-242 -104 -245 -119 -4 -16 -45 -36 -75 -36 -61 -1 -72 -60 -29 -151 17 -35
38 -86 46 -114 9 -27 27 -66 39 -86 47 -78 81 -125 110 -156 l30 -32 -6 -127
c-3 -69 -8 -129 -11 -132 -3 -2 -36 -8 -73 -12 -43 -5 -86 -17 -117 -34 -27
-14 -63 -26 -80 -26 -17 0 -46 -9 -63 -20 -18 -11 -59 -26 -90 -34 -124 -31
-149 -38 -178 -51 -128 -56 -155 -71 -155 -82 0 -6 -6 -16 -13 -20 -32 -20
-78 -94 -75 -120 3 -27 5 -28 50 -26 51 3 171 -36 192 -61 12 -15 121 -42 208
-52 41 -5 62 -3 74 6 11 10 48 13 134 11 105 -2 118 0 125 16 7 15 9 13 14
-12 8 -39 44 -44 101 -15 23 12 44 19 47 16 3 -2 7 -33 10 -68 6 -63 26 -98
63 -110 12 -4 15 -25 16 -104 0 -54 4 -122 8 -149 8 -48 7 -51 -18 -63 -14 -6
-26 -18 -26 -27 0 -8 -3 -15 -8 -15 -19 0 -34 -50 -42 -143 -6 -75 -16 -117
-34 -157 -14 -30 -26 -63 -26 -74 0 -20 -40 -90 -81 -139 -14 -18 -36 -51 -50
-75 -18 -34 -35 -49 -79 -68 -30 -14 -84 -40 -120 -58 -36 -19 -109 -48 -162
-66 -94 -30 -98 -33 -98 -61 0 -25 -4 -29 -27 -29 -16 0 -48 -10 -73 -21 -37
-17 -143 -37 -198 -39 -7 0 -24 -11 -37 -25 -25 -28 -176 -113 -215 -121 -53
-12 -110 -37 -110 -49 0 -19 -32 -42 -70 -49 -19 -4 -84 -11 -144 -16 -115
-11 -133 -18 -138 -53 -2 -12 -19 -32 -38 -45 -19 -13 -40 -32 -46 -43 -5 -11
-25 -29 -42 -39 -21 -13 -32 -28 -32 -43 0 -26 -38 -67 -61 -67 -19 0 -39 -20
-39 -38 0 -8 -15 -32 -34 -53 -51 -55 -86 -174 -85 -287 0 -48 -5 -109 -11
-137 -25 -113 -29 -145 -29 -255 -1 -77 3 -120 11 -128 9 -9 9 -36 -1 -118
-17 -139 -16 -222 4 -244 19 -21 19 -49 1 -69 -10 -11 -17 -67 -25 -180 -9
-138 -9 -167 3 -180 8 -9 16 -27 18 -41 2 -18 15 -31 47 -47 24 -12 51 -28 60
-36 14 -12 46 -26 128 -58 12 -4 69 -20 125 -33 l103 -26 620 3 c341 2 627 0
635 -3 8 -4 181 -11 384 -14 223 -5 377 -11 389 -18 11 -5 111 -14 223 -19
112 -4 230 -11 261 -14 91 -11 272 -16 793 -23 429 -7 492 -9 545 -26 54 -16
97 -18 435 -17 507 2 706 17 786 61 70 38 74 47 74 186 0 71 4 125 10 129 5 3
10 52 11 108 1 160 0 190 -7 206 -4 9 -6 50 -5 91 2 65 6 81 32 117 16 23 29
53 29 67 0 21 -5 25 -37 28 -44 4 -54 24 -19 38 45 17 34 51 -30 100 -67 52
-84 75 -84 113 0 20 -14 43 -48 80 -26 29 -56 64 -65 79 -20 33 -22 74 -4 81
17 6 30 151 17 176 -5 9 -11 24 -14 34 -3 9 -14 17 -24 17 -11 0 -31 11 -46
25 -15 14 -39 25 -54 25 -15 0 -35 8 -43 18 -9 9 -37 35 -62 57 -26 22 -47 45
-47 51 0 7 -35 28 -77 48 -106 50 -153 84 -153 110 0 15 -17 30 -63 56 -50 29
-63 41 -65 64 -4 30 -35 49 -107 61 -55 10 -175 45 -205 61 -14 7 -58 25 -97
40 -66 25 -73 30 -73 54 0 39 -16 48 -95 56 -39 4 -75 10 -80 15 -6 4 -29 12
-50 18 -103 26 -150 48 -159 74 -6 15 -16 27 -23 27 -7 0 -26 12 -43 28 -31
29 -35 47 -32 157 l2 61 67 18 c37 10 108 20 158 23 49 2 100 10 113 16 27 13
357 -6 376 -22 6 -5 47 -13 91 -17 71 -6 83 -10 107 -35 19 -21 36 -29 61 -29
44 0 149 -20 162 -31 5 -5 21 -9 36 -9 15 0 30 -4 33 -9 3 -4 46 -19 95 -31
82 -21 90 -26 93 -49 l3 -26 165 0 165 0 3 49 c3 38 -1 53 -17 70 -14 15 -17
26 -11 36 20 31 9 100 -15 100 -13 0 -98 113 -118 157 -7 16 -19 23 -39 23
-25 0 -28 3 -28 33 0 21 -8 41 -20 52 -14 13 -20 31 -20 61 0 37 -4 46 -27 61
-160 99 -223 146 -223 163 0 10 -18 33 -39 51 -36 28 -179 122 -256 167 -16 9
-42 31 -58 47 -140 149 -187 188 -275 235 -20 10 -43 23 -50 28 -19 13 -51
165 -52 245 0 69 -19 127 -42 127 -6 0 -1 11 12 25 13 14 33 25 45 25 11 0 59
13 105 30 47 16 97 30 112 30 15 0 51 9 80 20 29 11 60 20 69 20 9 0 22 7 29
15 7 8 26 15 42 15 36 0 78 43 78 80 0 34 32 76 65 84 20 5 25 13 25 39 0 30
-5 34 -68 64 -37 18 -98 37 -137 43 -38 6 -101 18 -140 27 -38 9 -106 17 -150
17 -58 -1 -83 3 -90 14 -9 11 -24 12 -89 3 -121 -17 -194 -15 -200 7 -5 19
-14 129 -21 266 -5 85 -4 91 24 135 39 62 91 176 91 200 0 11 5 23 10 26 6 3
10 19 10 34 0 15 9 36 20 46 13 12 20 31 20 57 0 35 -3 40 -44 60 -24 12 -48
30 -53 41 -13 29 -75 45 -205 53 -65 4 -121 11 -124 15 -6 10 -337 13 -346 3z
m815 -1536 c8 -13 20 -75 26 -138 7 -63 14 -125 17 -137 4 -21 1 -23 -36 -23
-51 0 -93 21 -107 53 -7 14 -17 52 -24 86 -14 73 -4 106 48 151 40 36 58 38
76 8z m-494 -93 c59 -31 72 -57 78 -162 7 -97 -3 -118 -75 -164 -78 -49 -133
-37 -181 40 -42 69 -45 144 -8 218 48 93 100 112 186 68z"/>
</g>
</svg>
